Coordinates
version=1
nRows=9
nColumns=32
inDegrees=yes

Units are S.I. units (second, meters, Newtons, ...)
If the header above contains a line with 'inDegrees', this indicates whether rotational values are in degrees (yes) or radians (no).

endheader
time	pelvis_tilt	pelvis_list	pelvis_rotation	pelvis_tx	pelvis_ty	pelvis_tz	hip_flexion_r	hip_adduction_r	hip_rotation_r	knee_angle_r	ankle_angle_r	subtalar_angle_r	mtp_angle_r	hip_flexion_l	hip_adduction_l	hip_rotation_l	knee_angle_l	ankle_angle_l	subtalar_angle_l	mtp_angle_l	lumbar_extension	lumbar_bending	lumbar_rotation	arm_flex_r	arm_add_r	arm_rot_r	elbow_flex_r	arm_flex_l	arm_add_l	arm_rot_l	elbow_flex_l
      2.00000000	    -13.59683563	     -8.49544100	      0.19850671	     -1.61492504	      0.88024722	      0.28396372	     21.77675519	      5.09236968	     -7.66773176	    -58.69300179	      1.54575479	    -16.04855507	      0.00000000	     38.32404972	     -8.31181165	     -3.95534354	    -32.47893074	      0.23964578	    -25.15450507	      0.00000000	      5.95392306	     -4.31834525	     -2.26136666	      0.00000000	      0.00000000	      0.00000000	      0.00000000	      0.00000000	      0.00000000	      0.00000000	      0.00000000
      2.01000000	    -13.49411829	     -8.68626590	      0.27746531	     -1.60723827	      0.88270449	      0.28326015	     23.39057893	      5.10688539	     -7.89936395	    -59.89722310	      1.69709799	    -16.23512816	      0.00000000	     37.43005439	     -8.57266821	     -4.11747111	    -32.66371369	      0.32526659	    -25.09397760	      0.00000000	      5.46264573	     -4.16404215	     -2.38600199	      0.00000000	      0.00000000	      0.00000000	      0.00000000	      0.00000000	      0.00000000	      0.00000000	      0.00000000
      2.02000000	    -14.07808465	     -7.82676197	      0.55305018	     -1.59954360	      0.88420332	      0.28166109	     25.93264143	      3.67051006	     -8.31573447	    -61.51854159	      2.36197186	    -16.38028914	      0.00000000	     36.46895622	     -7.21180190	     -3.85108418	    -30.30959854	     -0.21359967	    -25.87174131	      0.00000000	      5.88778014	     -5.27930913	     -2.43954680	      0.00000000	      0.00000000	      0.00000000	      0.00000000	      0.00000000	      0.00000000	      0.00000000	      0.00000000
      2.03000000	    -14.45750692	     -7.41725042	      0.91856044	     -1.59167318	      0.88537339	      0.28062203	     28.24310413	      2.90191048	     -8.58242468	    -62.85890043	      2.98371027	    -15.74089159	      0.00000000	     35.78109064	     -6.53692893	     -3.81259701	    -29.31054041	     -0.61047731	    -26.73428820	      0.00000000	      6.03979584	     -5.89359148	     -3.02921779	      0.00000000	      0.00000000	      0.00000000	      0.00000000	      0.00000000	      0.00000000	      0.00000000	      0.00000000
      2.04000000	    -14.96013495	     -7.10065146	      1.08421507	     -1.58431432	      0.88647133	      0.27949816	     30.68218937	      2.25591175	     -8.74523164	    -63.92647000	      3.59295886	    -14.90852390	      0.00000000	     35.22904890	     -5.97230440	     -3.62036084	    -28.30533814	     -1.09124069	    -27.35999096	      0.00000000	      6.26150429	     -6.34758222	     -3.09290162	      0.00000000	      0.00000000	      0.00000000	      0.00000000	      0.00000000	      0.00000000	      0.00000000	      0.00000000
      2.05000000	    -15.23769543	     -6.89408447	      1.53563531	     -1.57632606	      0.88766966	      0.27818324	     32.73224054	      1.54621075	     -9.27956406	    -64.74029101	      4.11259873	    -14.18662713	      0.00000000	     34.44806630	     -5.43738281	     -3.34156622	    -27.34238803	     -1.20586787	    -27.77515824	      0.00000000	      6.27233212	     -6.70673688	     -3.63773504	      0.00000000	      0.00000000	      0.00000000	      0.00000000	      0.00000000	      0.00000000	      0.00000000	      0.00000000
      2.06000000	    -15.10621665	     -7.16086430	      2.01348780	     -1.56804671	      0.88915150	      0.27825121	     34.30990537	      1.70221903	     -9.64575801	    -65.10549698	      4.14941430	    -14.19534742	      0.00000000	     33.52074545	     -5.70779117	     -3.51939018	    -26.86297573	     -1.19163379	    -27.76689835	      0.00000000	      5.88572316	     -6.70549086	     -3.68521355	      0.00000000	      0.00000000	      0.00000000	      0.00000000	      0.00000000	      0.00000000	      0.00000000	      0.00000000
      2.07000000	    -15.24743880	     -6.46030800	      2.43681774	     -1.55956809	      0.89050348	      0.27625599	     36.13920152	      0.27425285	    -10.18683794	    -65.66625973	      4.61144817	    -14.20327668	      0.00000000	     32.23095149	     -4.61901414	     -3.32364760	    -25.40436264	     -1.06827539	    -27.67478817	      0.00000000	      5.77902128	     -7.43223111	     -4.55072336	      0.00000000	      0.00000000	      0.00000000	      0.00000000	      0.00000000	      0.00000000	      0.00000000	      0.00000000
      2.08000000	    -15.22849019	     -6.18522733	      2.97108655	     -1.55122405	      0.89174949	      0.27464958	     37.69868494	     -0.58984252	    -10.79267548	    -65.86984510	      5.11001759	    -14.06448114	      0.00000000	     31.08351376	     -4.01254033	     -3.01092626	    -24.38767608	     -0.92622991	    -27.65779737	      0.00000000	      5.46127448	     -7.82724929	     -5.03799263	      0.00000000	      0.00000000	      0.00000000	      0.00000000	      0.00000000	      0.00000000	      0.00000000	      0.00000000
